<svg width="154" height="72" viewBox="0 0 154 72" fill="none" xmlns="http://www.w3.org/2000/svg">
<path d="M43.0461 9.38431C42.4696 8.49035 41.6275 8.46468 40.6679 8.43542C40.5592 8.43211 40.4489 8.42875 40.3374 8.42407C40.2525 8.42011 40.1587 8.42164 40.0608 8.42323C39.6716 8.42956 39.2164 8.43697 38.987 8.10582C38.7211 7.72189 38.7464 6.97994 38.7672 6.36743C38.7738 6.17388 38.7799 5.99314 38.7763 5.84083C38.7389 4.41797 38.661 2.90653 38.1186 2.40126C37.7096 2.02216 36.486 2.07468 35.3576 2.12311C34.9918 2.13881 34.636 2.15409 34.3211 2.15409H10.3022C9.81861 2.15409 9.31168 2.11421 8.81359 2.07503C7.84305 1.99868 6.90609 1.92497 6.24073 2.15409C5.27511 2.48822 5.20973 4.244 5.14816 5.89734L5.14485 5.98629C5.09315 7.35119 4.75913 8.40439 3.65211 8.2983C2.36456 8.1769 1.08337 8.13862 0.501226 9.31869C-0.186298 10.7149 -0.0445035 12.1764 0.209472 14.7943C0.24575 15.1682 0.284318 15.5657 0.323085 15.9901H43.4175C43.4421 15.6799 43.4684 15.3738 43.4942 15.0726C43.696 12.7173 43.8718 10.6652 43.0461 9.38431Z" fill="white"/>
<path fill-rule="evenodd" clip-rule="evenodd" d="M3.67915 18.5864C4.3522 27.811 5.0179 37.0462 5.68362 46.2815L5.68402 46.2872C6.04548 51.3017 6.40695 56.3162 6.76959 61.3291H8.14463C8.23833 62.1137 8.34554 63.0825 8.45857 64.1038C8.68803 66.1771 8.94152 68.4675 9.15463 69.875H9.30671C10.7073 69.356 20.3898 65.1649 20.3941 48.4793C20.3923 48.4317 20.3939 48.3841 20.3988 48.3369H18.0067C17.8908 48.3358 17.7786 48.2966 17.6872 48.2254C17.5958 48.1543 17.5302 48.055 17.5007 47.9429C17.2676 47.3598 17.0796 46.7596 16.9385 46.1476C15.5312 46.9524 14.4137 48.1814 13.7452 49.6594C13.1106 48.1457 13.0275 46.4569 13.5105 44.8881C13.9935 43.3193 15.0118 41.9702 16.3875 41.0767C16.4052 36.2078 18.2054 31.5143 21.4473 27.8846L21.4979 27.8396C21.5921 27.7571 21.7128 27.7112 21.8379 27.7102C21.9102 27.7108 21.9817 27.7264 22.0477 27.7561C22.1145 27.7862 22.1743 27.83 22.2231 27.8846C25.5029 31.5192 27.2936 36.2579 27.238 41.1555C28.6394 42.0241 29.6784 43.3722 30.1623 44.9495C30.6461 46.5268 30.5419 48.2263 29.8691 49.7326C29.2041 48.2522 28.0857 47.0222 26.6758 46.2207C26.5896 46.8139 26.431 47.3941 26.2035 47.9485C26.1248 48.1849 25.9674 48.3369 25.81 48.3369H23.2589C23.2629 48.3652 23.2658 48.3936 23.2674 48.4221L23.2684 48.4287V48.4425C23.2693 48.467 23.2694 48.4916 23.2685 48.5163C23.3034 65.681 33.598 69.577 34.4657 69.875H34.7625C34.8383 68.523 35.085 66.6575 35.3255 64.8388C35.4912 63.5855 35.6539 62.3544 35.7558 61.3291H37.1468C37.592 55.0148 38.0499 48.7182 38.5078 42.4215L38.508 42.4181L38.5082 42.4163C39.0939 34.3621 39.6796 26.3076 40.2388 18.2157H3.76822C3.66324 18.2364 3.6704 18.4103 3.67915 18.5864ZM21.8379 27.7102L21.8352 27.7102H21.8408L21.8379 27.7102Z" fill="white"/>
<path d="M58.6509 10.2565C58.6509 7.97944 59.4255 6.21469 60.9748 4.96229C62.5523 3.68142 64.9186 3.04099 68.0735 3.04099C70.1581 3.04099 71.9327 3.24024 73.3975 3.63873V9.53071C71.8201 9.04683 70.2567 8.80489 68.7073 8.80489C67.1862 8.80489 66.2003 8.9899 65.7496 9.35993C65.2988 9.7015 65.0735 10.2138 65.0735 10.897V25.2427C65.0735 26.6089 66.1298 27.2921 68.2425 27.2921C70.3834 27.2921 72.144 27.0786 73.5243 26.6516V32.4155C72.0032 32.8425 70.1581 33.056 67.989 33.056C64.834 33.056 62.4819 32.4298 60.9326 31.1774C59.4114 29.925 58.6509 28.1602 58.6509 25.8831V10.2565Z" fill="white"/>
<path d="M85.8671 14.3126C85.8671 13.231 85.2756 12.6902 84.0924 12.6902C82.9093 12.6902 82.3178 13.231 82.3178 14.3126V26.182C82.3178 27.2636 82.9093 27.8044 84.0924 27.8044C85.2756 27.8044 85.8671 27.2636 85.8671 26.182V14.3126ZM76.0642 14.0991C76.0642 11.9359 76.7261 10.2565 78.0501 9.06106C79.4022 7.83712 81.4164 7.22516 84.0924 7.22516C86.7685 7.22516 88.7686 7.83712 90.0925 9.06106C91.4446 10.2565 92.1207 11.9359 92.1207 14.0991V26.3955C92.1207 28.5587 91.4446 30.2523 90.0925 31.4762C88.7686 32.6717 86.7685 33.2694 84.0924 33.2694C81.4164 33.2694 79.4022 32.6717 78.0501 31.4762C76.7261 30.2523 76.0642 28.5587 76.0642 26.3955V14.0991Z" fill="white"/>
<path d="M96.2276 7.35324C96.2276 2.54288 98.7347 0.137695 103.749 0.137695C104.397 0.137695 105.171 0.208854 106.073 0.351173V5.30386C105.622 5.24693 105.2 5.21847 104.805 5.21847C103.369 5.21847 102.65 5.90159 102.65 7.26785V7.65211H106.073V12.6902H102.65V32.8425H96.2276V12.6902H93.8191V7.65211H96.2276V7.35324Z" fill="white"/>
<path d="M108.689 7.35324C108.689 2.54288 111.196 0.137695 116.21 0.137695C116.858 0.137695 117.633 0.208854 118.534 0.351173V5.30386C118.084 5.24693 117.661 5.21847 117.267 5.21847C115.83 5.21847 115.112 5.90159 115.112 7.26785V7.65211H118.534V12.6902H115.112V32.8425H108.689V12.6902H106.281V7.65211H108.689V7.35324Z" fill="white"/>
<path d="M120.01 25.6696V14.0991C120.01 11.9359 120.672 10.2565 121.996 9.06106C123.32 7.83712 125.32 7.22516 127.996 7.22516C133.151 7.22516 135.729 9.51648 135.729 14.0991V22.7663H126.137V25.1573C126.137 26.0112 126.362 26.6232 126.813 26.9932C127.292 27.3348 128.32 27.5055 129.897 27.5055C131.503 27.5055 133.25 27.2209 135.137 26.6516V32.2874C133.165 32.8282 131.052 33.0986 128.799 33.0986C122.94 33.0986 120.01 30.6223 120.01 25.6696ZM126.137 17.8563H129.855V14.1845C129.855 13.1029 129.236 12.5621 127.996 12.5621C126.757 12.5621 126.137 13.1029 126.137 14.1845V17.8563Z" fill="white"/>
<path d="M138.249 25.6696V14.0991C138.249 11.9359 138.911 10.2565 140.235 9.06106C141.559 7.83712 143.559 7.22516 146.235 7.22516C151.39 7.22516 153.967 9.51648 153.967 14.0991V22.7663H144.375V25.1573C144.375 26.0112 144.601 26.6232 145.051 26.9932C145.53 27.3348 146.559 27.5055 148.136 27.5055C149.742 27.5055 151.488 27.2209 153.376 26.6516V32.2874C151.404 32.8282 149.291 33.0986 147.037 33.0986C141.178 33.0986 138.249 30.6223 138.249 25.6696ZM144.375 17.8563H148.094V14.1845C148.094 13.1029 147.474 12.5621 146.235 12.5621C144.995 12.5621 144.375 13.1029 144.375 14.1845V17.8563Z" fill="white"/>
<path d="M68.8211 48.5632C68.8211 46.4613 67.7232 45.4103 65.5275 45.4103H62.0258V64.5729H65.5275C67.7232 64.5729 68.8211 63.4986 68.8211 61.35V48.5632ZM59.5642 43.2383H65.6661C67.5152 43.2383 68.9136 43.7171 69.8612 44.6746C70.8088 45.6322 71.2827 46.9167 71.2827 48.5282V61.42C71.2827 63.0782 70.8204 64.3861 69.8959 65.3436C68.9713 66.3012 67.5845 66.78 65.7355 66.78H59.5642V43.2383Z" fill="white"/>
<path d="M75.3336 61.7003V51.9613C75.3336 50.3031 75.7959 48.9836 76.7204 48.0027C77.6681 46.9984 79.0896 46.4963 80.9849 46.4963C82.8801 46.4963 84.2785 46.9984 85.1799 48.0027C86.1045 48.9836 86.5667 50.3031 86.5667 51.9613V58.0569H77.7605V61.5952C77.7605 62.6462 78.0841 63.4285 78.7313 63.9423C79.3785 64.4562 80.3839 64.7131 81.7476 64.7131C83.1113 64.7131 84.5212 64.5029 85.9773 64.0825V66.3946C84.8217 66.7683 83.4464 66.9551 81.8516 66.9551C77.5063 66.9551 75.3336 65.2035 75.3336 61.7003ZM77.7605 55.99H84.2092V51.9613C84.2092 49.766 83.1344 48.6683 80.9849 48.6683C78.8353 48.6683 77.7605 49.766 77.7605 51.9613V55.99Z" fill="white"/>
<path d="M90.7808 41.5567H93.2423V66.78H90.7808V41.5567Z" fill="white"/>
<path d="M99.2397 44.6045C98.2458 44.6045 97.7489 44.0674 97.7489 42.9931C97.7489 41.9187 98.2458 41.3816 99.2397 41.3816C100.257 41.3816 100.765 41.9187 100.765 42.9931C100.765 44.0674 100.257 44.6045 99.2397 44.6045ZM98.0262 46.9867H100.488V66.78H98.0262V46.9867Z" fill="white"/>
<path d="M113.176 46.8466H115.673L111.304 66.78H107.837L103.469 46.8466H106L107.907 55.99L109.605 65.0284C110.299 61.1514 111.489 55.0909 113.176 46.8466Z" fill="white"/>
<path d="M118.299 61.7003V51.9613C118.299 50.3031 118.761 48.9836 119.685 48.0027C120.633 46.9984 122.055 46.4963 123.95 46.4963C125.845 46.4963 127.244 46.9984 128.145 48.0027C129.07 48.9836 129.532 50.3031 129.532 51.9613V58.0569H120.726V61.5952C120.726 62.6462 121.049 63.4285 121.696 63.9423C122.344 64.4562 123.349 64.7131 124.713 64.7131C126.076 64.7131 127.486 64.5029 128.942 64.0825V66.3946C127.787 66.7683 126.411 66.9551 124.817 66.9551C120.471 66.9551 118.299 65.2035 118.299 61.7003ZM120.726 55.99H127.174V51.9613C127.174 49.766 126.099 48.6683 123.95 48.6683C121.8 48.6683 120.726 49.766 120.726 51.9613V55.99Z" fill="white"/>
<path d="M140.125 46.7415H140.992V49.1237H139.813C138.981 49.1237 138.23 49.3456 137.56 49.7893C137.351 49.9295 136.901 50.2447 136.207 50.7352V66.78H133.746V46.8466H136.103V48.353C136.173 48.3063 136.346 48.1778 136.623 47.9676C136.924 47.7575 137.097 47.6407 137.143 47.6173C137.213 47.5706 137.363 47.4772 137.594 47.3371C137.848 47.1969 138.033 47.1152 138.149 47.0918C138.288 47.0451 138.472 46.9867 138.704 46.9167C139.05 46.7999 139.524 46.7415 140.125 46.7415Z" fill="white"/>
<path d="M151.539 46.8466H154L148.592 71.9998H146.234L147.309 66.78H146.095L141.796 46.8466H144.293L146.373 56.7607L147.898 65.0284C148.36 62.2725 148.869 59.5166 149.424 56.7607L151.539 46.8466Z" fill="white"/>
</svg>
